<svg width="155" height="51" viewBox="0 0 155 51" fill="none" xmlns="http://www.w3.org/2000/svg">
<g filter="url(#filter0_d_316_24)">
<path d="M14.6157 19.6154L10.7177 12.9396H7.81501V19.6154H4V0.384615H11.7406C13.5283 0.384615 15.0488 1.00733 16.302 2.25275C17.5553 3.49817 18.1819 5 18.1819 6.75824C18.1819 7.94872 17.8409 9.05678 17.159 10.0824C16.4771 11.0897 15.574 11.8498 14.4498 12.3626L18.7348 19.6154H14.6157ZM7.81501 3.92857V9.61539H11.7406C12.4594 9.61539 13.0768 9.34066 13.5928 8.79121C14.1089 8.22344 14.3669 7.54579 14.3669 6.75824C14.3669 5.9707 14.1089 5.3022 13.5928 4.75275C13.0768 4.2033 12.4594 3.92857 11.7406 3.92857H7.81501Z" fill="white"/>
<path d="M20.9812 0.384615H24.7962V19.6154H20.9812V0.384615Z" fill="white"/>
<path d="M37.5565 20C34.6446 20 32.2395 19.0385 30.3412 17.1154C28.4429 15.1923 27.4937 12.8205 27.4937 10C27.4937 7.16117 28.4429 4.78938 30.3412 2.88462C32.2395 0.961539 34.6446 0 37.5565 0C39.3074 0 40.92 0.412088 42.3944 1.23626C43.8872 2.04213 45.0483 3.14103 45.8777 4.53297L42.5879 6.42857C42.1087 5.56777 41.4268 4.89927 40.5422 4.42308C39.6575 3.92857 38.6623 3.68132 37.5565 3.68132C35.6767 3.68132 34.1562 4.2674 32.9951 5.43956C31.8524 6.61172 31.2811 8.13187 31.2811 10C31.2811 11.8498 31.8524 13.3608 32.9951 14.533C34.1562 15.7051 35.6767 16.2912 37.5565 16.2912C38.6623 16.2912 39.6575 16.0531 40.5422 15.5769C41.4452 15.0824 42.1272 14.4139 42.5879 13.5714L45.8777 15.467C45.0483 16.859 43.8964 17.967 42.422 18.7912C40.9476 19.5971 39.3258 20 37.5565 20Z" fill="white"/>
<path d="M59.2239 0.384615H63.0113V19.6154H59.2239V11.6484H52.0362V19.6154H48.2212V0.384615H52.0362V8.02198H59.2239V0.384615Z" fill="white"/>
<path d="M86.3171 0.384615V4.01099H81.0922V19.6154H77.2772V4.01099H72.08V0.384615H86.3171Z" fill="white"/>
<path d="M103.623 17.1154C101.669 19.0385 99.2919 20 96.4905 20C93.6891 20 91.3117 19.0385 89.3581 17.1154C87.4229 15.174 86.4554 12.8022 86.4554 10C86.4554 7.1978 87.4229 4.83517 89.3581 2.91209C91.3117 0.970696 93.6891 0 96.4905 0C99.2919 0 101.669 0.970696 103.623 2.91209C105.576 4.83517 106.553 7.1978 106.553 10C106.553 12.8022 105.576 15.174 103.623 17.1154ZM92.0397 14.533C93.2376 15.7051 94.7212 16.2912 96.4905 16.2912C98.2598 16.2912 99.7434 15.7051 100.941 14.533C102.139 13.3425 102.738 11.8315 102.738 10C102.738 8.1685 102.139 6.65751 100.941 5.46703C99.7434 4.27656 98.2598 3.68132 96.4905 3.68132C94.7212 3.68132 93.2376 4.27656 92.0397 5.46703C90.8417 6.65751 90.2427 8.1685 90.2427 10C90.2427 11.8315 90.8417 13.3425 92.0397 14.533Z" fill="white"/>
<path d="M112.407 19.6154L106.988 0.384615H110.997L114.701 14.6429L118.738 0.384615H122L126.064 14.6429L129.768 0.384615H133.777L128.358 19.6154H124.018L120.369 6.92308L116.747 19.6154H112.407Z" fill="white"/>
<path d="M147.185 0.384615H151V19.6154H148.097L139.804 7.85714V19.6154H135.989V0.384615H138.891L147.185 12.1154V0.384615Z" fill="white"/>
</g>
<g filter="url(#filter1_d_316_24)">
<path d="M37.5 24L39.8574 31.2553H47.4861L41.3143 35.7394L43.6717 42.9947L37.5 38.5106L31.3283 42.9947L33.6857 35.7394L27.5139 31.2553H35.1426L37.5 24Z" fill="white"/>
</g>
<g filter="url(#filter2_d_316_24)">
<path d="M57.5 24L59.8574 31.2553H67.4861L61.3143 35.7394L63.6717 42.9947L57.5 38.5106L51.3283 42.9947L53.6857 35.7394L47.5139 31.2553H55.1426L57.5 24Z" fill="white"/>
</g>
<g filter="url(#filter3_d_316_24)">
<path d="M76.5 24L78.8574 31.2553H86.4861L80.3143 35.7394L82.6717 42.9947L76.5 38.5106L70.3283 42.9947L72.6857 35.7394L66.5139 31.2553H74.1426L76.5 24Z" fill="white"/>
</g>
<g filter="url(#filter4_d_316_24)">
<path d="M97.5 24L99.8574 31.2553H107.486L101.314 35.7394L103.672 42.9947L97.5 38.5106L91.3283 42.9947L93.6857 35.7394L87.5139 31.2553H95.1426L97.5 24Z" fill="white"/>
</g>
<g filter="url(#filter5_d_316_24)">
<path d="M117.5 24L119.857 31.2553H127.486L121.314 35.7394L123.672 42.9947L117.5 38.5106L111.328 42.9947L113.686 35.7394L107.514 31.2553H115.143L117.5 24Z" fill="white"/>
</g>
<defs>
<filter id="filter0_d_316_24" x="0" y="0" width="155" height="28" filterUnits="userSpaceOnUse" color-interpolation-filters="sRGB">
<feFlood flood-opacity="0" result="BackgroundImageFix"/>
<feColorMatrix in="SourceAlpha" type="matrix" values="0 0 0 0 0 0 0 0 0 0 0 0 0 0 0 0 0 0 127 0" result="hardAlpha"/>
<feOffset dy="4"/>
<feGaussianBlur stdDeviation="2"/>
<feComposite in2="hardAlpha" operator="out"/>
<feColorMatrix type="matrix" values="0 0 0 0 0 0 0 0 0 0 0 0 0 0 0 0 0 0 0.25 0"/>
<feBlend mode="normal" in2="BackgroundImageFix" result="effect1_dropShadow_316_24"/>
<feBlend mode="normal" in="SourceGraphic" in2="effect1_dropShadow_316_24" result="shape"/>
</filter>
<filter id="filter1_d_316_24" x="23.5139" y="24" width="27.9722" height="26.9946" filterUnits="userSpaceOnUse" color-interpolation-filters="sRGB">
<feFlood flood-opacity="0" result="BackgroundImageFix"/>
<feColorMatrix in="SourceAlpha" type="matrix" values="0 0 0 0 0 0 0 0 0 0 0 0 0 0 0 0 0 0 127 0" result="hardAlpha"/>
<feOffset dy="4"/>
<feGaussianBlur stdDeviation="2"/>
<feComposite in2="hardAlpha" operator="out"/>
<feColorMatrix type="matrix" values="0 0 0 0 0 0 0 0 0 0 0 0 0 0 0 0 0 0 0.25 0"/>
<feBlend mode="normal" in2="BackgroundImageFix" result="effect1_dropShadow_316_24"/>
<feBlend mode="normal" in="SourceGraphic" in2="effect1_dropShadow_316_24" result="shape"/>
</filter>
<filter id="filter2_d_316_24" x="43.5139" y="24" width="27.9722" height="26.9946" filterUnits="userSpaceOnUse" color-interpolation-filters="sRGB">
<feFlood flood-opacity="0" result="BackgroundImageFix"/>
<feColorMatrix in="SourceAlpha" type="matrix" values="0 0 0 0 0 0 0 0 0 0 0 0 0 0 0 0 0 0 127 0" result="hardAlpha"/>
<feOffset dy="4"/>
<feGaussianBlur stdDeviation="2"/>
<feComposite in2="hardAlpha" operator="out"/>
<feColorMatrix type="matrix" values="0 0 0 0 0 0 0 0 0 0 0 0 0 0 0 0 0 0 0.25 0"/>
<feBlend mode="normal" in2="BackgroundImageFix" result="effect1_dropShadow_316_24"/>
<feBlend mode="normal" in="SourceGraphic" in2="effect1_dropShadow_316_24" result="shape"/>
</filter>
<filter id="filter3_d_316_24" x="62.5139" y="24" width="27.9722" height="26.9946" filterUnits="userSpaceOnUse" color-interpolation-filters="sRGB">
<feFlood flood-opacity="0" result="BackgroundImageFix"/>
<feColorMatrix in="SourceAlpha" type="matrix" values="0 0 0 0 0 0 0 0 0 0 0 0 0 0 0 0 0 0 127 0" result="hardAlpha"/>
<feOffset dy="4"/>
<feGaussianBlur stdDeviation="2"/>
<feComposite in2="hardAlpha" operator="out"/>
<feColorMatrix type="matrix" values="0 0 0 0 0 0 0 0 0 0 0 0 0 0 0 0 0 0 0.25 0"/>
<feBlend mode="normal" in2="BackgroundImageFix" result="effect1_dropShadow_316_24"/>
<feBlend mode="normal" in="SourceGraphic" in2="effect1_dropShadow_316_24" result="shape"/>
</filter>
<filter id="filter4_d_316_24" x="83.5139" y="24" width="27.9722" height="26.9946" filterUnits="userSpaceOnUse" color-interpolation-filters="sRGB">
<feFlood flood-opacity="0" result="BackgroundImageFix"/>
<feColorMatrix in="SourceAlpha" type="matrix" values="0 0 0 0 0 0 0 0 0 0 0 0 0 0 0 0 0 0 127 0" result="hardAlpha"/>
<feOffset dy="4"/>
<feGaussianBlur stdDeviation="2"/>
<feComposite in2="hardAlpha" operator="out"/>
<feColorMatrix type="matrix" values="0 0 0 0 0 0 0 0 0 0 0 0 0 0 0 0 0 0 0.25 0"/>
<feBlend mode="normal" in2="BackgroundImageFix" result="effect1_dropShadow_316_24"/>
<feBlend mode="normal" in="SourceGraphic" in2="effect1_dropShadow_316_24" result="shape"/>
</filter>
<filter id="filter5_d_316_24" x="103.514" y="24" width="27.9722" height="26.9946" filterUnits="userSpaceOnUse" color-interpolation-filters="sRGB">
<feFlood flood-opacity="0" result="BackgroundImageFix"/>
<feColorMatrix in="SourceAlpha" type="matrix" values="0 0 0 0 0 0 0 0 0 0 0 0 0 0 0 0 0 0 127 0" result="hardAlpha"/>
<feOffset dy="4"/>
<feGaussianBlur stdDeviation="2"/>
<feComposite in2="hardAlpha" operator="out"/>
<feColorMatrix type="matrix" values="0 0 0 0 0 0 0 0 0 0 0 0 0 0 0 0 0 0 0.25 0"/>
<feBlend mode="normal" in2="BackgroundImageFix" result="effect1_dropShadow_316_24"/>
<feBlend mode="normal" in="SourceGraphic" in2="effect1_dropShadow_316_24" result="shape"/>
</filter>
</defs>
</svg>
