<svg width="103" height="30" viewBox="0 0 103 30" fill="none" xmlns="http://www.w3.org/2000/svg">
<path d="M7.4382 13.6868L4.70699 9.02872H2.6731V13.6868H0V0.268369H5.42369C6.6763 0.268369 7.74167 0.702873 8.61979 1.57188C9.49791 2.44089 9.93697 3.4888 9.93697 4.71564C9.93697 5.5463 9.69807 6.31946 9.22027 7.03512C8.74247 7.73799 8.10971 8.26834 7.32198 8.62616L10.3244 13.6868H7.4382ZM2.6731 2.7412V6.70924H5.42369C5.92732 6.70924 6.35992 6.51755 6.7215 6.13416C7.08308 5.738 7.26387 5.26515 7.26387 4.71564C7.26387 4.16612 7.08308 3.69967 6.7215 3.31628C6.35992 2.9329 5.92732 2.7412 5.42369 2.7412H2.6731Z" fill="#121212"/>
<path d="M11.8984 0.268369H14.5715V13.6868H11.8984V0.268369Z" fill="#121212"/>
<path d="M23.5124 13.9552C21.472 13.9552 19.7868 13.2843 18.4567 11.9424C17.1266 10.6006 16.4616 8.94565 16.4616 6.97761C16.4616 4.99679 17.1266 3.34184 18.4567 2.01277C19.7868 0.670924 21.472 0 23.5124 0C24.7392 0 25.8691 0.287539 26.9022 0.862617C27.9482 1.42492 28.7617 2.19168 29.3429 3.16293L27.0378 4.48561C26.702 3.88497 26.2242 3.41852 25.6044 3.08625C24.9845 2.7412 24.2872 2.56868 23.5124 2.56868C22.1952 2.56868 21.1298 2.97762 20.3163 3.79551C19.5156 4.6134 19.1153 5.6741 19.1153 6.97761C19.1153 8.26834 19.5156 9.32265 20.3163 10.1405C21.1298 10.9584 22.1952 11.3674 23.5124 11.3674C24.2872 11.3674 24.9845 11.2012 25.6044 10.869C26.2371 10.5239 26.7149 10.0575 27.0378 9.46961L29.3429 10.7923C28.7617 11.7635 27.9546 12.5367 26.9216 13.1118C25.8885 13.6741 24.7521 13.9552 23.5124 13.9552Z" fill="#121212"/>
<path d="M38.6943 0.268369H41.3481V13.6868H38.6943V8.12776H33.658V13.6868H30.9849V0.268369H33.658V5.59742H38.6943V0.268369Z" fill="#121212"/>
<path d="M57.678 0.268369V2.79871H54.017V13.6868H51.3439V2.79871H47.7023V0.268369H57.678Z" fill="#121212"/>
<path d="M69.8038 11.9424C68.435 13.2843 66.7691 13.9552 64.8063 13.9552C62.8434 13.9552 61.1776 13.2843 59.8087 11.9424C58.4528 10.5878 57.7748 8.93287 57.7748 6.97761C57.7748 5.02234 58.4528 3.37379 59.8087 2.03194C61.1776 0.677314 62.8434 0 64.8063 0C66.7691 0 68.435 0.677314 69.8038 2.03194C71.1726 3.37379 71.8571 5.02234 71.8571 6.97761C71.8571 8.93287 71.1726 10.5878 69.8038 11.9424ZM61.6876 10.1405C62.527 10.9584 63.5666 11.3674 64.8063 11.3674C66.046 11.3674 67.0855 10.9584 67.9249 10.1405C68.7643 9.30987 69.184 8.25556 69.184 6.97761C69.184 5.69966 68.7643 4.64535 67.9249 3.81468C67.0855 2.98401 66.046 2.56868 64.8063 2.56868C63.5666 2.56868 62.527 2.98401 61.6876 3.81468C60.8483 4.64535 60.4286 5.69966 60.4286 6.97761C60.4286 8.25556 60.8483 9.30987 61.6876 10.1405Z" fill="#121212"/>
<path d="M75.9586 13.6868L72.162 0.268369H74.9707L77.5663 10.2172L80.3944 0.268369H82.6801L85.5275 10.2172L88.1231 0.268369H90.9318L87.1352 13.6868H84.0941L81.5372 4.83065L78.9997 13.6868H75.9586Z" fill="#121212"/>
<path d="M100.327 0.268369H103V13.6868H100.966L95.155 5.48241V13.6868H92.4819V0.268369H94.5158L100.327 8.45364V0.268369Z" fill="#121212"/>
<path d="M23.4728 16.7463L25.1246 21.8087H30.4698L26.1454 24.9375L27.7972 30L23.4728 26.8712L19.1484 30L20.8001 24.9375L16.4757 21.8087H21.821L23.4728 16.7463Z" fill="#121212"/>
<path d="M37.4864 16.7463L39.1382 21.8087H44.4835L40.159 24.9375L41.8108 30L37.4864 26.8712L33.162 30L34.8138 24.9375L30.4893 21.8087H35.8346L37.4864 16.7463Z" fill="#121212"/>
<path d="M50.7993 16.7463L52.4511 21.8087H57.7964L53.472 24.9375L55.1237 30L50.7993 26.8712L46.4749 30L48.1267 24.9375L43.8023 21.8087H49.1475L50.7993 16.7463Z" fill="#121212"/>
<path d="M65.5136 16.7463L67.1654 21.8087H72.5107L68.1862 24.9375L69.838 30L65.5136 26.8712L61.1892 30L62.841 24.9375L58.5165 21.8087H63.8618L65.5136 16.7463Z" fill="#121212"/>
<path d="M79.5272 16.7463L81.179 21.8087H86.5243L82.1998 24.9375L83.8516 30L79.5272 26.8712L75.2028 30L76.8546 24.9375L72.5302 21.8087H77.8754L79.5272 16.7463Z" fill="#121212"/>
</svg>
