<svg width="77" height="77" viewBox="0 0 77 77" fill="none" xmlns="http://www.w3.org/2000/svg">
<path fill-rule="evenodd" clip-rule="evenodd" d="M42.9427 57.3981C35.961 48.6128 31.3185 42.763 29.0361 39.8124C22.5531 31.4111 21.3385 29.6054 20.9676 28.3347C20.8915 28.0507 20.7808 27.4105 21.0075 26.8931C21.2003 26.4761 21.5467 26.2919 21.8156 26.159C22.0844 26.0261 22.6657 25.8094 23.1354 25.7445C28.6696 24.8096 42.3585 23.5164 48.6851 23.039C51.371 22.8369 52.4744 23.546 52.8031 24.4322C53.5064 26.3749 52.4327 28.2762 51.6928 30.5143C50.5395 34.0506 49.7672 36.0538 48.6195 39.4972C47.3096 43.4713 45.5021 41.6113 42.996 40.2125C42.3477 39.8381 32.0573 33.2487 31.3015 33.2685C31.2087 33.2629 30.8678 33.3543 30.7506 33.5988C30.6335 33.8433 30.7664 34.1121 30.8841 34.3242C31.0246 34.6214 35.4848 38.5412 44.2515 46.1478C45.5543 47.2602 46.3361 48.3598 46.6045 49.4753C46.9034 50.7044 46.8742 53.2087 46.778 55.1221C46.6671 57.4353 46.7545 59.2386 45.5234 59.4162C44.8756 59.4985 44.0223 58.8137 42.9427 57.3981Z" fill="white" fill-opacity="0.08"/>
<circle cx="38.3587" cy="38.3585" r="28.8197" transform="rotate(-105 38.3587 38.3585)" stroke="white" stroke-opacity="0.08" stroke-width="5"/>
</svg>
