<svg width="77" height="77" viewBox="0 0 77 77" fill="none" xmlns="http://www.w3.org/2000/svg">
<path d="M48.406 25.7905C49.0734 26.8715 49.2723 31.2639 48.5095 32.3273C48.0912 32.9106 47.5679 33.444 47.0695 33.9504C46.7211 34.3049 46.5521 34.7071 46.1739 35.0117C45.8646 35.2602 45.4994 35.4309 45.1939 35.6926C44.6814 36.1343 44.2453 36.8142 44.8715 37.3519C45.8137 38.1618 47.6638 37.2246 48.3675 38.3045C48.6037 38.6667 48.672 39.0321 48.6384 39.4848L48.6834 40.4873C48.6948 41.0761 48.7002 42.0089 48.581 42.6789C48.4477 43.4262 48.0446 44.0435 47.7488 44.7196C47.187 46.0025 46.4215 47.2244 45.3613 48.1545C42.4737 50.6857 38.5026 54.0856 34.8722 55.4064C34.1262 55.678 32.6488 56.3957 32.009 55.7153C31.3453 54.7901 31.1584 50.2495 32.1845 49.5411C32.6017 49.2536 33.2117 49.072 33.6847 48.8684C34.2741 48.6149 34.8294 48.4777 35.3511 48.0815C35.8138 47.7309 36.2792 47.4725 36.7863 47.2014C37.3557 46.8969 37.9017 46.6093 38.4256 46.239C38.7821 45.9876 39.4913 45.3231 39.5438 44.9034C39.6733 43.8784 37.2143 43.942 36.614 44.0183C36.0354 44.0913 35.4216 44.1099 34.8348 44.0907C34.3342 44.0743 33.6289 44.0287 33.2204 44.3289C32.554 44.8183 33.0524 45.9086 32.1569 45.9937C31.9028 45.8137 31.6774 45.8516 31.2863 44.6493C30.9791 43.7022 30.9888 43.0904 31.0381 42.466C31.1389 41.193 30.7987 39.8431 31.2061 38.614C31.5967 37.4397 33.2442 37.6214 34.2313 37.6609C35.5787 37.7141 36.8941 37.657 38.262 37.6609C38.8845 37.6625 39.4907 37.6878 39.4398 36.9185C39.3927 36.1974 38.7935 36.1239 38.2994 35.7799C37.6103 35.3014 36.9114 34.8619 36.225 34.3746C35.297 33.7178 34.2541 33.5192 33.3033 32.9008C32.9636 32.6796 32.2398 32.4892 31.9711 32.1485C31.7668 31.8906 31.8735 31.4006 31.8735 31.0883L31.8735 30.3459C31.8735 29.778 31.8692 29.1986 31.8893 28.6147C31.918 27.7741 31.7273 26.8325 31.8438 25.999C32.3449 22.4022 39.9366 30.5199 41.2921 30.0974C42.2283 29.8054 43.2744 27.9535 44.041 27.2852C45.0622 26.3979 47.0922 23.6664 48.406 25.7905Z" stroke="white" stroke-opacity="0.08" stroke-width="2"/>
<circle cx="38.3587" cy="38.3587" r="28.8197" transform="rotate(-105 38.3587 38.3587)" stroke="white" stroke-opacity="0.08" stroke-width="5"/>
</svg>
