<svg width="63" height="63" viewBox="0 0 63 63" fill="none" xmlns="http://www.w3.org/2000/svg">
<path d="M62.7365 31.7826C62.7384 26.281 61.2944 20.9097 58.5496 16.1758L63 0L46.3711 4.34062C41.7893 1.85323 36.6312 0.542337 31.3815 0.540177L31.3681 0.540177C14.0809 0.540176 0.00724072 14.5466 2.73123e-06 31.7584C-0.00288954 40.1005 3.25743 47.944 9.17931 53.8445C15.1021 59.745 22.9772 62.9964 31.3681 63C48.6588 63 62.7293 48.9953 62.7365 31.7826ZM52.8344 16.9914L53.4551 17.9729C56.0653 22.1042 57.443 26.879 57.4411 31.7812C57.4354 46.0874 45.74 57.7273 31.3589 57.7273C24.3946 57.7246 17.8494 55.0217 12.9261 50.1177C8.00334 45.2134 5.29458 38.6939 5.29647 31.7609C5.30286 17.4539 16.9985 5.81309 31.3687 5.8131L31.3789 5.8131C36.058 5.8158 40.6468 7.06619 44.6488 9.43036L45.6013 9.99243L55.4696 7.41673L52.8344 16.9914ZM31.3681 0.540177C31.3687 0.540177 31.3684 0.540177 31.3681 0.540177V0.540177Z" fill="url(#paint0_linear_4_77)" fill-opacity="0.06"/>
<path fill-rule="evenodd" clip-rule="evenodd" d="M39.2078 44.8349C39.795 46.1343 40.4129 46.1603 40.9714 46.1832C41.4285 46.2025 41.9512 46.2013 42.4734 46.2013C42.9962 46.2013 43.8453 46.006 44.5633 45.2252C45.282 44.4443 47.3068 42.5567 47.3068 38.7179C47.3068 34.8786 44.4979 31.169 44.1066 30.6479C43.7145 30.1277 38.6842 21.9977 30.7183 18.8703C24.0973 16.2711 22.7499 16.7881 21.3129 16.9183C19.8759 17.0482 16.6756 18.8052 16.0227 20.6273C15.3694 22.4491 15.3694 24.0108 15.5653 24.3369C15.7611 24.6621 16.2839 24.8574 17.0677 25.2473C17.8517 25.6376 21.705 27.5254 22.4233 27.7859C23.1419 28.0459 23.6644 28.1758 24.1872 27.3946C24.7097 26.6144 26.2108 24.8574 26.6682 24.3369C27.1253 23.8155 27.5827 23.7504 28.3665 24.1407C29.1505 24.5322 31.6749 25.3553 34.6695 28.0132C36.9996 30.0814 38.5725 32.6355 39.0299 33.4167C39.487 34.197 39.0787 34.6196 38.6857 35.0087C38.3336 35.3583 37.9017 35.9197 37.5097 36.3751C37.1186 36.8308 36.9881 37.156 36.7269 37.6764C36.4653 38.1972 36.5961 38.6529 36.792 39.0432C36.9881 39.4335 38.5108 43.2919 39.2078 44.8349Z" fill="white" fill-opacity="0.06"/>
<defs>
<linearGradient id="paint0_linear_4_77" x1="31.4996" y1="-0.0018052" x2="31.4996" y2="62.9981" gradientUnits="userSpaceOnUse">
<stop stop-color="#F9F9F9"/>
<stop offset="1" stop-color="white"/>
</linearGradient>
</defs>
</svg>
